<?xml version="1.0" encoding="iso-8859-1"?>
<!-- Generator: Adobe Illustrator 19.0.0, SVG Export Plug-In . SVG Version: 6.00 Build 0)  -->
<svg fill="#fed000" version="1.1" id="Capa_1" xmlns="http://www.w3.org/2000/svg" xmlns:xlink="http://www.w3.org/1999/xlink" x="0px" y="0px"
	 viewBox="0 0 512 512" style="enable-background:new 0 0 512 512;" xml:space="preserve">
<g>
	<g>
		<path d="M373.333,448H138.667c-5.888,0-10.667,4.779-10.667,10.667v42.667c0,5.888,4.779,10.667,10.667,10.667h234.667
			c5.888,0,10.667-4.779,10.667-10.667v-42.667C384,452.779,379.221,448,373.333,448z"/>
	</g>
</g>
<g>
	<g>
		<circle cx="405.333" cy="64" r="64"/>
	</g>
</g>
<g>
	<g>
		<path d="M202.667,0H160c-5.888,0-10.667,4.779-10.667,10.667v10.667h-32c-5.888,0-10.667,4.779-10.667,10.667v10.667H53.333
			c-5.888,0-10.667,4.779-10.667,10.667S47.445,64,53.333,64h53.333v10.667c0,5.888,4.779,10.667,10.667,10.667h32V96
			c0,5.888,4.779,10.667,10.667,10.667h42.667c5.888,0,10.667-4.779,10.667-10.667V10.667C213.333,4.779,208.555,0,202.667,0z"/>
	</g>
</g>
<g>
	<g>
		<path d="M256,341.333c-51.52,0-94.592,36.715-104.512,85.333h209.024C350.592,378.048,307.52,341.333,256,341.333z"/>
	</g>
</g>
<g>
	<g>
		<path d="M405.333,149.333c-27.029,0-50.88-12.885-66.517-32.555L222.165,325.056C233.045,322.048,244.288,320,256,320
			c41.429,0,78.827,20.437,102.443,52.16l60.352-224.171C414.379,148.672,409.941,149.333,405.333,149.333z"/>
	</g>
</g>
<g>
	<g>
		<path d="M337.429,12.885l-102.763,6.421v70.379l94.848,12.651C323.627,90.752,320,77.845,320,64
			C320,44.757,326.635,27.179,337.429,12.885z"/>
	</g>
</g>
<g>
</g>
<g>
</g>
<g>
</g>
<g>
</g>
<g>
</g>
<g>
</g>
<g>
</g>
<g>
</g>
<g>
</g>
<g>
</g>
<g>
</g>
<g>
</g>
<g>
</g>
<g>
</g>
<g>
</g>
</svg>
