<svg fill="#fed000" id="Слой_1" data-name="Слой 1" xmlns="http://www.w3.org/2000/svg" viewBox="0 0 273.29 388"><title>list</title><path d="M0,388l0-.33a2.17,2.17,0,0,1,1.57-.46c0.61,0,1.22,0,1.83,0q133.15,0,266.31,0c1.13,0,2.36-.33,3.38.51l0,0.28H0Z" fill="#3f3f3f"/><path d="M273.28,39.86A14,14,0,0,0,259.21,26q-32.83,0-65.67,0c-1.51,0-3.44.64-4.42-.27S188.35,23,188,21.56c-1-4.72-2.11-9.42-2.84-14.19-0.63-4.1-2.93-6.77-7.07-7.38-0.51,0-1,0-1.52,0H112.87Q103.95,0,95,0c-3.54.58-6.17,2.81-6.69,6-1,6.22-2.56,12.32-3.68,18.52C84.43,25.73,84,26,82.7,26Q48.43,26,14.16,26A14,14,0,0,0,0,39.13C0,39.59,0,40,0,40.5Q0,213.25,0,386c0,0.56,0,1.12,0,1.68l2.14,0H270.88l2.29,0c0-.6.11-1.21,0.11-1.81q0-172.49,0-345C273.29,40.57,273.29,40.21,273.28,39.86ZM41.84,62.67c0-2.26.83-3.11,3.13-3.11h73.74c2.3,0,3.21.93,3.21,3.25q0,17.71,0,35.42c0,2.35-.88,3.22-3.2,3.22H45c-2.33,0-3.14-.78-3.14-3.07Q41.83,80.53,41.84,62.67Zm66.78,58.48A6.56,6.56,0,1,1,102,114.6,6.69,6.69,0,0,1,108.62,121.15Zm-40.46,0a6.54,6.54,0,0,1-13.08.06,6.64,6.64,0,0,1,6.53-6.65A6.57,6.57,0,0,1,68.16,121.18Zm88.58,202a5.42,5.42,0,0,1-5.35,3.74H86.18q-32.3,0-64.6,0a5.31,5.31,0,0,1-5.19-3.07,5.19,5.19,0,0,1,.6-5.74,5.32,5.32,0,0,1,3.91-2.09c0.3,0,.61,0,0.92,0H151a6,6,0,0,1,3.73,1.06A5.43,5.43,0,0,1,156.74,323.2Zm-0.27,20.55a5.21,5.21,0,0,1-4.23,3.1,10.31,10.31,0,0,1-1.37.05h-129c-3.72,0-6.07-2.29-6-5.78A5.39,5.39,0,0,1,20.82,336c0.51,0,1,0,1.53,0H151.23C155.55,336,158.25,340,156.47,343.75ZM151,366.87H21.53a5.46,5.46,0,0,1-1.45-10.78,6.92,6.92,0,0,1,1.66-.15H151.08c3.42,0,5.92,2.3,5.95,5.42S154.52,366.87,151,366.87Zm4.66-61.77a5.26,5.26,0,0,1-4,1.94c-0.86,0-1.73,0-2.6,0H21.89c-4.47,0-7.34-3.9-5.59-7.66a5.46,5.46,0,0,1,5.38-3.29h129.5a5.42,5.42,0,0,1,5.35,3.31A5.1,5.1,0,0,1,155.68,305.1ZM16,200.61a5.58,5.58,0,0,1,5-4.19c0.46,0,.92,0,1.37,0H151.09c4.12,0,6.83,3.38,5.65,7.06a5.15,5.15,0,0,1-4.07,3.7,13.06,13.06,0,0,1-2.58.22H22.73a8.13,8.13,0,0,1-4-.72A5.5,5.5,0,0,1,16,200.61Zm-0.09-18.71c0-3.26,2.39-5.45,6-5.45H151.07a5.47,5.47,0,0,1,2.21,10.65,6.73,6.73,0,0,1-2.41.24h-129C18.21,187.35,15.87,185.21,15.87,181.91ZM16,220.41a5.67,5.67,0,0,1,5-4.08c0.46,0,.92,0,1.37,0H86.49q32.07,0,64.14,0a6.91,6.91,0,0,1,3.67.79,5.5,5.5,0,0,1,2.61,5.72,5.57,5.57,0,0,1-5,4.45,13.7,13.7,0,0,1-1.37,0H22.28a6.83,6.83,0,0,1-4.19-1.1A5.55,5.55,0,0,1,16,220.41Zm136.25,26.75a16.07,16.07,0,0,1-1.83.06h-64q-32.15,0-64.29,0A6.18,6.18,0,0,1,17.85,246a5.33,5.33,0,0,1-1.8-5.77,5.56,5.56,0,0,1,5.07-4c0.35,0,.71,0,1.07,0H150.62c3.3,0,5.4,1.41,6.17,4.13A5.44,5.44,0,0,1,152.24,247.16ZM152.65,267a12.63,12.63,0,0,1-2.28.15H22.1c-4,0-6.37-2.27-6.22-5.86a5.37,5.37,0,0,1,4.38-5,11.9,11.9,0,0,1,2-.15H150.65c3.34,0,5.41,1.42,6.15,4.15A5.43,5.43,0,0,1,152.65,267ZM19.79,276.37a7,7,0,0,1,2.12-.18H86.35c21.53,0,43.06,0,64.6-.05,3,0,6,2.06,6.07,5.47,0.06,3.15-2.53,5.52-6,5.53H21.81c-3.13,0-5.58-1.94-5.91-4.63A5.52,5.52,0,0,1,19.79,276.37ZM155.92,165.2a5.58,5.58,0,0,1-4.9,2.25q-32.3,0-64.6,0H21.52a5.28,5.28,0,0,1-5.21-3.27,5.14,5.14,0,0,1,.93-5.82,5.84,5.84,0,0,1,4.65-1.87q18.17,0,36.35,0,46.35,0,92.7,0a5.64,5.64,0,0,1,5.5,3.11A5.08,5.08,0,0,1,155.92,165.2Zm19.22-75.45q2.62-8.59,5.18-17.19A7.26,7.26,0,0,1,184.07,68c5.2-2.75,10.37-5.56,15.55-8.35a6.35,6.35,0,0,1,3.6-1,5.76,5.76,0,0,1,2.4.4c5.63,1.69,11.26,3.43,16.9,5.1A7.09,7.09,0,0,1,227,67.78q4.25,8,8.56,16a6.73,6.73,0,0,1,.52,5.44c-1.75,5.67-3.44,11.36-5.13,17a7.26,7.26,0,0,1-3.7,4.6q-7.94,4.2-15.83,8.47a6.86,6.86,0,0,1-5.58.55q-8.65-2.66-17.34-5.22a6.78,6.78,0,0,1-4.22-3.48q-4.27-8-8.57-16A6.76,6.76,0,0,1,175.15,89.76ZM216.48,354c-20.65,0-38.08-17.66-38-38.65a38.63,38.63,0,1,1,77.26.11C255.77,337,238.4,354,216.48,354Zm0-108.44c-20.65,0-38.08-17.65-38-38.65a38.63,38.63,0,1,1,77.26.11C255.77,228.56,238.4,245.6,216.48,245.59Z"/><path d="M209.3,186.53l11.29,1.18c2.38,0.25,4.75.54,7.13,0.77a1.71,1.71,0,0,1,1.49.81Q234.08,197,239,204.7a1.74,1.74,0,0,1,.11,1.69c-1.92,5.61-3.86,11.22-5.76,16.85a2.15,2.15,0,0,1-1.52,1.47q-8.33,2.92-16.61,6a2.15,2.15,0,0,1-2.09-.27q-7.43-4.64-14.9-9.22a2.29,2.29,0,0,1-1.21-1.92q-0.94-8.49-2-17a2.88,2.88,0,0,1,.84-2.71c4.11-4.09,8.16-8.25,12.24-12.37C208.44,186.88,208.71,186.34,209.3,186.53Z"/><path d="M195,310a1.45,1.45,0,0,1,.49-1.54q6.44-6.51,12.84-13.07a1.46,1.46,0,0,1,1.36-.43q9.1,1,18.2,1.93a1.58,1.58,0,0,1,1.33.81q4.89,7.72,9.83,15.42a1.6,1.6,0,0,1,.16,1.55q-2.95,8.56-5.86,17.13A1.88,1.88,0,0,1,232,333.1q-8.4,3-16.76,6a2,2,0,0,1-2-.19c-5-3.17-10.1-6.27-15.15-9.4a1.62,1.62,0,0,1-1-1.22C196.42,322.18,195.69,316.08,195,310Z"/><path d="M205.63,106.4a17,17,0,1,1,17-16.9A17,17,0,0,1,205.63,106.4Z"/></svg>