<svg fill="#fed000" id="Слой_1" data-name="Слой 1" xmlns="http://www.w3.org/2000/svg" viewBox="0 0 121.59 184.84"><title>Mask</title><polygon points="52.16 79.1 75.69 54.17 69.48 54.17 45.96 79.1 52.16 79.1"/><polygon points="90.3 79.1 90.3 54.17 81.31 54.17 57.78 79.1 90.3 79.1"/><polygon points="57.28 54.17 32.3 54.17 32.3 79.1 33.76 79.1 57.28 54.17"/><path d="M121.56,62c0-3,0-6,0-9-0.07-3.95.78-5.12-4.67-5-2.93.09-3.57-1.19-4-3.7C108.41,18.59,87.49.56,61.51,0A52.82,52.82,0,0,0,8.69,43.93c-0.31,1.84.09,3.72-3,4.1C-0.48,48.77,0,45.77,0,54.6c0,3.43,0,6.11,0,10,0,5.72-.38,4.55,4.44,4.7C7.6,69.38,7.89,70.41,7.87,73c-0.11,14.83.13,29.66-.09,44.48-0.43,29.4,15.05,49,38.89,63.35,9.26,5.57,19,5.17,28.49-.15,12.85-7.18,22.5-17.54,30-30,5.71-9.43,8.87-19.53,8.65-30.75-0.31-15.65-.11-31.32,0-47,0-1.31-.55-3.92,1.78-3.88C122.45,69.19,121.5,68.69,121.56,62ZM6.67,67.6H1.25V49.71H6.67V67.6ZM98.48,86.1H24.31v-40H98.48v40Zm21.69-18.5h-5.42V49.71h5.42V67.6Z"/></svg>