<svg fill="#fed000" id="Слой_1" data-name="Слой 1" xmlns="http://www.w3.org/2000/svg" viewBox="0 0 177.92 174.17"><title>welding-machine</title><path d="M22.08,116.17l12.33,12.58-0.17,8.42,5.83,0.92,0.58,9.25,6.58-6.83,5.83,2.75,28.08-25L80,135.33l49-14-22.67,18.5,67.5-2.17-54.67,11.67,55,13.33-86.67-.83-0.67,12L72,162.5,56.5,173.67l-6.67-10-21,10.5-1.33-9.33L5.67,174.17l19.33-24L0,144l22.17-8.83Z"/><path d="M94.5,79l23.25-12.87L118,72.38,100,84.13Z"/><path d="M171,0L152.33,13.33l-9.17-2.67L92,48l-0.8.59L95,54.2l-2.38,1.61-3.71-5.5L86,52.47l3.87,5.73-2.38,1.61-3.8-5.62-3.2,2.39,3.88,5.75L82,63.94,78.17,58.3l-4.38,3.26,1,6.31A47.75,47.75,0,0,0,56.17,94.94l-7.69-.12-9.56,37.94,13.25,4.88,17-33.75L64,100.94A45.23,45.23,0,0,1,80.73,76.75L93,77l37.5-20.19,2.69-8.06L158,33.88,159.92,23l18-13.12Z"/></svg>