<svg xmlns="http://www.w3.org/2000/svg" viewBox="0 0 913.443 913.443"><g fill="#fed000"><path d="M160.172 752.869l-35.715 85.408c-2.255 5.395 1.707 11.346 7.553 11.346h101.786c8.608 0 16.375-5.17 19.695-13.113l34.305-82.037H186.389a214.26 214.26 0 01-26.217-1.604zm324.074-551.036v105.811h242.809c28.527 0 56.213 5.593 82.291 16.622a210.32 210.32 0 0157.717 36.4V201.833c0-14.329-11.615-25.945-25.945-25.945H510.191c-14.33 0-25.945 11.616-25.945 25.945z"/><path d="M863.732 669.795c30.844-33.254 49.711-77.775 49.711-126.711v-24.051c0-47.148-17.514-90.2-46.381-123.025-34.158-38.843-84.217-63.364-140.008-63.364H432.559V115.131l110.21-.232c5.643 12.801 18.436 21.741 33.324 21.741h91.76c20.109 0 36.41-16.301 36.41-36.41s-16.301-36.41-36.41-36.41l-260.699.167c-13.61 0-25.004 11.143-25.435 24.664a24.835 24.835 0 00-.073 1.795v242.197H186.389C83.45 332.644 0 416.092 0 519.033v24.051c0 97.5 74.868 177.502 170.249 185.686 5.32.455 10.701.703 16.14.703h377.464a156.81 156.81 0 01-.277-9.166c0-20.82 4.082-41.033 12.137-60.072 7.773-18.381 18.896-34.881 33.061-49.045 14.164-14.162 30.664-25.285 49.043-33.061 19.041-8.053 39.252-12.137 60.074-12.137s41.033 4.084 60.074 12.137c18.379 7.775 34.879 18.898 49.043 33.061 14.164 14.164 25.287 30.664 33.061 49.043a155.102 155.102 0 013.663 9.562z"/><path d="M843.32 688.76c-14.082-56.168-64.895-97.766-125.43-97.766-71.418 0-129.314 57.896-129.314 129.314 0 3.082.115 6.137.328 9.164a128.986 128.986 0 004.242 25c14.986 54.838 65.154 95.15 124.744 95.15 71.418 0 129.314-57.896 129.314-129.314a129.569 129.569 0 00-1.238-17.891 127.89 127.89 0 00-2.646-13.657zm-125.429 74.199a42.458 42.458 0 01-25.535-8.486 42.847 42.847 0 01-11.201-12.5 42.326 42.326 0 01-4.916-12.5 42.836 42.836 0 01-.998-9.164c0-23.555 19.096-42.65 42.65-42.65s42.652 19.096 42.652 42.65c0 2.123-.16 4.207-.461 6.248a42.353 42.353 0 01-4.305 13.336 42.833 42.833 0 01-11.457 13.879c-7.267 5.746-16.443 9.187-26.429 9.187z"/></g></svg>