<svg xmlns="http://www.w3.org/2000/svg" viewBox="0 0 958.62 958.621"><path d="M128.293 399.812h15.44v273.777h186.655v-171.87c4.077-.768 8.334-1.755 12.5-3.021 4.381-1.333 8.652-2.979 12.5-5.002 12.779-6.722 20.846-17.646 12.342-35.406-6.271-13.1-9.502-24.245-10.957-33.478-.734-4.653-1.022-8.825-1.005-12.5.023-5.115.62-9.278 1.366-12.5h228.71c11.1 0 20.097-8.997 20.097-20.096V73.482c0-11.099-8.997-20.096-20.097-20.096H128.293C57.439 53.386 0 110.825 0 181.679v89.84c0 70.855 57.439 128.293 128.293 128.293zm179.366-241.294c9.763-9.763 25.592-9.763 35.354 0 9.764 9.763 9.764 25.592 0 35.355l-74.373 74.373a24.924 24.924 0 01-17.678 7.322 24.925 24.925 0 01-17.678-7.322c-9.763-9.763-9.763-25.592 0-35.355l74.375-74.373zm-195.576 74.373l74.373-74.373c9.763-9.763 25.592-9.763 35.355 0 9.763 9.763 9.763 25.592 0 35.355l-74.373 74.373c-4.881 4.881-11.28 7.322-17.678 7.322s-12.796-2.441-17.678-7.322c-9.762-9.763-9.762-25.592.001-35.355zm400.835 642.182V728.75c0-16.657-13.503-30.161-30.161-30.161H107.45c-16.657 0-30.161 13.503-30.161 30.161v146.323c0 16.656 13.503 30.16 30.161 30.16h375.307c16.658 0 30.161-13.503 30.161-30.16zM933.12 201.099H754.541C743.809 138.106 694.003 88.441 630.94 77.916v297.368c63.062-10.526 112.869-60.191 123.601-123.185H933.12c14.083 0 25.5-11.417 25.5-25.5s-11.417-25.5-25.5-25.5z" fill="#fed000"/></svg>