<svg fill="#fed000" xmlns="http://www.w3.org/2000/svg" viewBox="0 0 512 512"><path d="M373.333 448H138.667c-5.888 0-10.667 4.779-10.667 10.667v42.667c0 5.888 4.779 10.667 10.667 10.667h234.667c5.888 0 10.667-4.779 10.667-10.667v-42.667C384 452.779 379.221 448 373.333 448z"/><circle cx="405.333" cy="64" r="64"/><path d="M202.667 0H160c-5.888 0-10.667 4.779-10.667 10.667v10.667h-32c-5.888 0-10.667 4.779-10.667 10.667v10.667H53.333c-5.888 0-10.667 4.779-10.667 10.667S47.445 64 53.333 64h53.333v10.667c0 5.888 4.779 10.667 10.667 10.667h32V96c0 5.888 4.779 10.667 10.667 10.667h42.667c5.888 0 10.667-4.779 10.667-10.667V10.667C213.333 4.779 208.555 0 202.667 0zM256 341.333c-51.52 0-94.592 36.715-104.512 85.333h209.024c-9.92-48.618-52.992-85.333-104.512-85.333z"/><path d="M405.333 149.333c-27.029 0-50.88-12.885-66.517-32.555L222.165 325.056C233.045 322.048 244.288 320 256 320c41.429 0 78.827 20.437 102.443 52.16l60.352-224.171c-4.416.683-8.854 1.344-13.462 1.344zM337.429 12.885l-102.763 6.421v70.379l94.848 12.651C323.627 90.752 320 77.845 320 64c0-19.243 6.635-36.821 17.429-51.115z"/></svg>