<svg fill="#fed000" data-name="Слой 1" xmlns="http://www.w3.org/2000/svg" viewBox="0 0 273.29 388"><path d="M0 388v-.33a2.17 2.17 0 011.57-.46h268.14c1.13 0 2.36-.33 3.38.51v.28H0z" fill="#3f3f3f"/><path d="M273.28 39.86A14 14 0 00259.21 26h-65.67c-1.51 0-3.44.64-4.42-.27s-.77-2.73-1.12-4.17c-1-4.72-2.11-9.42-2.84-14.19-.63-4.1-2.93-6.77-7.07-7.38h-65.22Q103.95 0 95 0c-3.54.58-6.17 2.81-6.69 6-1 6.22-2.56 12.32-3.68 18.52C84.43 25.73 84 26 82.7 26H14.16A14 14 0 000 39.13v348.55h273.17c0-.6.11-1.21.11-1.81v-345c.01-.3.01-.66 0-1.01zM41.84 62.67c0-2.26.83-3.11 3.13-3.11h73.74c2.3 0 3.21.93 3.21 3.25v35.42c0 2.35-.88 3.22-3.2 3.22H45c-2.33 0-3.14-.78-3.14-3.07q-.03-17.85-.02-35.71zm66.78 58.48a6.56 6.56 0 11-6.62-6.55 6.69 6.69 0 016.62 6.55zm-40.46 0a6.54 6.54 0 01-13.08.06 6.64 6.64 0 016.53-6.65 6.57 6.57 0 016.55 6.62zm88.58 202a5.42 5.42 0 01-5.35 3.74H21.58a5.31 5.31 0 01-5.19-3.07 5.19 5.19 0 01.6-5.74 5.32 5.32 0 013.91-2.09H151a6 6 0 013.73 1.06 5.43 5.43 0 012.01 6.15zm-.27 20.55a5.21 5.21 0 01-4.23 3.1 10.31 10.31 0 01-1.37.05h-129c-3.72 0-6.07-2.29-6-5.78a5.39 5.39 0 014.95-5.07h130.41c4.32 0 7.02 4 5.24 7.75zM151 366.87H21.53a5.46 5.46 0 01-1.45-10.78 6.92 6.92 0 011.66-.15h129.34c3.42 0 5.92 2.3 5.95 5.42s-2.51 5.51-6.03 5.51zm4.66-61.77a5.26 5.26 0 01-4 1.94H21.89c-4.47 0-7.34-3.9-5.59-7.66a5.46 5.46 0 015.38-3.29h129.5a5.42 5.42 0 015.35 3.31 5.1 5.1 0 01-.85 5.7zM16 200.61a5.58 5.58 0 015-4.19h130.09c4.12 0 6.83 3.38 5.65 7.06a5.15 5.15 0 01-4.07 3.7 13.06 13.06 0 01-2.58.22H22.73a8.13 8.13 0 01-4-.72 5.5 5.5 0 01-2.73-6.07zm-.09-18.71c0-3.26 2.39-5.45 6-5.45h129.16a5.47 5.47 0 012.21 10.65 6.73 6.73 0 01-2.41.24h-129c-3.66.01-6-2.13-6-5.43zm.09 38.51a5.67 5.67 0 015-4.08h129.63a6.91 6.91 0 013.67.79 5.5 5.5 0 012.61 5.72 5.57 5.57 0 01-5 4.45 13.7 13.7 0 01-1.37 0H22.28a6.83 6.83 0 01-4.19-1.1 5.55 5.55 0 01-2.09-5.78zm136.25 26.75a16.07 16.07 0 01-1.83.06H22.13a6.18 6.18 0 01-4.28-1.22 5.33 5.33 0 01-1.8-5.77 5.56 5.56 0 015.07-4h129.5c3.3 0 5.4 1.41 6.17 4.13a5.44 5.44 0 01-4.55 6.8zm.4 19.84a12.63 12.63 0 01-2.28.15H22.1c-4 0-6.37-2.27-6.22-5.86a5.37 5.37 0 014.38-5 11.9 11.9 0 012-.15h128.39c3.34 0 5.41 1.42 6.15 4.15a5.43 5.43 0 01-4.15 6.71zm-132.86 9.37a7 7 0 012.12-.18h64.44c21.53 0 43.06 0 64.6-.05 3 0 6 2.06 6.07 5.47.06 3.15-2.53 5.52-6 5.53H21.81c-3.13 0-5.58-1.94-5.91-4.63a5.52 5.52 0 013.89-6.14zM155.92 165.2a5.58 5.58 0 01-4.9 2.25H21.52a5.28 5.28 0 01-5.21-3.27 5.14 5.14 0 01.93-5.82 5.84 5.84 0 014.65-1.87h129.05a5.64 5.64 0 015.5 3.11 5.08 5.08 0 01-.52 5.6zm19.22-75.45q2.62-8.59 5.18-17.19a7.26 7.26 0 013.75-4.56c5.2-2.75 10.37-5.56 15.55-8.35a6.35 6.35 0 013.6-1 5.76 5.76 0 012.4.4c5.63 1.69 11.26 3.43 16.9 5.1a7.09 7.09 0 014.48 3.63q4.25 8 8.56 16a6.73 6.73 0 01.52 5.44c-1.75 5.67-3.44 11.36-5.13 17a7.26 7.26 0 01-3.7 4.6q-7.94 4.2-15.83 8.47a6.86 6.86 0 01-5.58.55q-8.65-2.66-17.34-5.22a6.78 6.78 0 01-4.22-3.48q-4.27-8-8.57-16a6.76 6.76 0 01-.56-5.38zM216.48 354c-20.65 0-38.08-17.66-38-38.65a38.63 38.63 0 1177.26.11C255.77 337 238.4 354 216.48 354zm0-108.44c-20.65 0-38.08-17.65-38-38.65a38.63 38.63 0 1177.26.11c.03 21.54-17.34 38.58-39.26 38.57z"/><path d="M209.3 186.53l11.29 1.18c2.38.25 4.75.54 7.13.77a1.71 1.71 0 011.49.81q4.87 7.71 9.79 15.41a1.74 1.74 0 01.11 1.69c-1.92 5.61-3.86 11.22-5.76 16.85a2.15 2.15 0 01-1.52 1.47q-8.33 2.92-16.61 6a2.15 2.15 0 01-2.09-.27q-7.43-4.64-14.9-9.22a2.29 2.29 0 01-1.21-1.92q-.94-8.49-2-17a2.88 2.88 0 01.84-2.71c4.11-4.09 8.16-8.25 12.24-12.37.34-.34.61-.88 1.2-.69zM195 310a1.45 1.45 0 01.49-1.54q6.44-6.51 12.84-13.07a1.46 1.46 0 011.36-.43q9.1 1 18.2 1.93a1.58 1.58 0 011.33.81q4.89 7.72 9.83 15.42a1.6 1.6 0 01.16 1.55q-2.95 8.56-5.86 17.13a1.88 1.88 0 01-1.35 1.3q-8.4 3-16.76 6a2 2 0 01-2-.19c-5-3.17-10.1-6.27-15.15-9.4a1.62 1.62 0 01-1-1.22c-.67-6.11-1.4-12.21-2.09-18.29zm10.63-203.6a17 17 0 1117-16.9 17 17 0 01-17 16.9z"/></svg>