<svg fill="#fed000" data-name="Слой 1" xmlns="http://www.w3.org/2000/svg" viewBox="0 0 121.59 184.84"><path d="M52.16 79.1l23.53-24.93h-6.21L45.96 79.1h6.2zm38.14 0V54.17h-8.99L57.78 79.1H90.3zM57.28 54.17H32.3V79.1h1.46l23.52-24.93z"/><path d="M121.56 62v-9c-.07-3.95.78-5.12-4.67-5-2.93.09-3.57-1.19-4-3.7C108.41 18.59 87.49.56 61.51 0A52.82 52.82 0 008.69 43.93c-.31 1.84.09 3.72-3 4.1C-.48 48.77 0 45.77 0 54.6v10c0 5.72-.38 4.55 4.44 4.7 3.16.08 3.45 1.11 3.43 3.7-.11 14.83.13 29.66-.09 44.48-.43 29.4 15.05 49 38.89 63.35 9.26 5.57 19 5.17 28.49-.15 12.85-7.18 22.5-17.54 30-30 5.71-9.43 8.87-19.53 8.65-30.75-.31-15.65-.11-31.32 0-47 0-1.31-.55-3.92 1.78-3.88 6.86.14 5.91-.36 5.97-7.05zM6.67 67.6H1.25V49.71h5.42V67.6zm91.81 18.5H24.31v-40h74.17v40zm21.69-18.5h-5.42V49.71h5.42V67.6z"/></svg>