<svg fill="#fed000" data-name="Слой 1" xmlns="http://www.w3.org/2000/svg" viewBox="0 0 177.92 174.17"><path d="M22.08 116.17l12.33 12.58-.17 8.42 5.83.92.58 9.25 6.58-6.83 5.83 2.75 28.08-25L80 135.33l49-14-22.67 18.5 67.5-2.17-54.67 11.67 55 13.33-86.67-.83-.67 12L72 162.5l-15.5 11.17-6.67-10-21 10.5-1.33-9.33-21.83 9.33 19.33-24L0 144l22.17-8.83zM94.5 79l23.25-12.87.25 6.25-18 11.75z"/><path d="M171 0l-18.67 13.33-9.17-2.67L92 48l-.8.59L95 54.2l-2.38 1.61-3.71-5.5L86 52.47l3.87 5.73-2.38 1.61-3.8-5.62-3.2 2.39 3.88 5.75L82 63.94l-3.83-5.64-4.38 3.26 1 6.31a47.75 47.75 0 00-18.62 27.07l-7.69-.12-9.56 37.94 13.25 4.88 17-33.75-5.17-2.95a45.23 45.23 0 0116.73-24.19L93 77l37.5-20.19 2.69-8.06L158 33.88 159.92 23l18-13.12z"/></svg>